<svg id="Camada_1" data-name="Camada 1" xmlns="http://www.w3.org/2000/svg" viewBox="0 0 787.04 166.64"><defs><style>.cls-1{fill:#fff;}.cls-2{fill:#ffbd00;}</style></defs><title>logo-negative</title><path class="cls-1" d="M262.81,60.3a20.15,20.15,0,0,0-15.09,6.43q-6.18,6.43-6.19,17.54,0,14.66,10.61,21.26a20.67,20.67,0,0,0,11,3q8.07,0,12.89-4.37a23.75,23.75,0,0,0,3.72-4.19,8.25,8.25,0,0,1,9.6-3.23l.94.34a8.14,8.14,0,0,1,4.07,12.1,39.69,39.69,0,0,1-8,8.72q-9.13,7.45-23.26,7.46-17,0-28.49-11.75T223.12,84.27q0-17.77,11.35-29.37t28.18-11.59q14.44,0,23.57,7.46A36.68,36.68,0,0,1,294,59.32,8.5,8.5,0,0,1,289.6,71.8l-.69.25a8.62,8.62,0,0,1-10.15-3.6,21,21,0,0,0-3.33-3.94Q270.9,60.3,262.81,60.3Z"/><path class="cls-1" d="M348.21,43.31q17.46,0,28.82,11.59t11.35,29.37q0,17.79-11.35,29.45t-28.82,11.67q-17.29,0-28.65-11.67T308.21,84.27q0-17.77,11.35-29.37T348.21,43.31Zm-15.32,59a21.19,21.19,0,0,0,30.64.08q6.27-6.51,6.27-18.1,0-11.43-6.27-17.86a21.47,21.47,0,0,0-30.64,0q-6.27,6.44-6.27,17.86T332.89,102.29Z"/><path class="cls-1" d="M415.36,123h0a9.21,9.21,0,0,1-9.2-9.21V17.28a9.2,9.2,0,0,1,9.2-9.21h0a9.21,9.21,0,0,1,9.21,9.21V113.8A9.21,9.21,0,0,1,415.36,123Z"/><path class="cls-1" d="M457.75,123h-.48a8.89,8.89,0,0,1-8.89-8.89V54.51a8.82,8.82,0,0,1,8.81-8.82h0A8.82,8.82,0,0,1,466,54.51v1a21.47,21.47,0,0,1,9.6-8.89,29.54,29.54,0,0,1,13.26-3.18,27.94,27.94,0,0,1,14,3.5A21.5,21.5,0,0,1,512,57.12q8.1-13.65,25.09-13.65a27.24,27.24,0,0,1,19.36,7.46q7.93,7.47,7.94,21.91v41.28a8.89,8.89,0,0,1-8.89,8.89h0a8.89,8.89,0,0,1-8.89-8.89V75.86q0-7.14-3.73-11.51T531.73,60a14.92,14.92,0,0,0-11.59,4.92,17.61,17.61,0,0,0-4.45,12.23v37A8.89,8.89,0,0,1,506.8,123h-.31a8.89,8.89,0,0,1-8.89-8.89V75.86q0-7.14-3.73-11.51T482.67,60q-7.31,0-11.66,4.84a17.65,17.65,0,0,0-4.37,12.31v37A8.89,8.89,0,0,1,457.75,123Z"/><path class="cls-1" d="M646.51,98.13h0a8.08,8.08,0,0,1,4.32,12.21,35.79,35.79,0,0,1-7.9,8.14q-9.12,6.92-22.46,6.91a38.55,38.55,0,0,1-28-11.27Q580.93,102.84,580.94,84q0-17.78,11.19-29.21t26.43-11.43q17.79,0,27.79,10.88t10,29.29q0,4.92-.48,5.87H599.35a20,20,0,0,0,6.43,14.45,20.75,20.75,0,0,0,14.69,5.71q11.49,0,16.78-8A8.14,8.14,0,0,1,646.51,98.13ZM599.83,75.86h37.94a17.92,17.92,0,0,0-5.16-12.23q-4.85-4.92-13.89-4.92-8.25,0-13.33,5.16A18.51,18.51,0,0,0,599.83,75.86Z"/><path class="cls-1" d="M683,54.68a20.73,20.73,0,0,1-7.85-1.47A.82.82,0,0,0,674,54v59.92a9.13,9.13,0,1,0,18.25,0V53.92a.81.81,0,0,0-1.13-.74A21.58,21.58,0,0,1,683,54.68Z"/><path class="cls-1" d="M711.27,102.05q0-9.84,6.43-15.79t16.91-7.54l19.84-3q5.71-.8,5.72-5.56a10.85,10.85,0,0,0-3.65-8.49q-3.66-3.26-11-3.25-7,0-11.11,3.88a15.12,15.12,0,0,0-3,4A8.51,8.51,0,0,1,722,70.62h0a8.55,8.55,0,0,1-5.45-12.8,29.62,29.62,0,0,1,6.33-7.12q8.89-7.39,22.55-7.39,16.82,0,24.84,8.1t8,20.8v38.41q0,1.91.06,3.63a8.5,8.5,0,0,1-8.52,8.76h0a8.53,8.53,0,0,1-8.52-8.47c0-.44,0-.9,0-1.38q-7.62,12.24-23.81,12.23-11.76,0-19-6.91A22,22,0,0,1,711.27,102.05ZM741,110.94q8.58,0,13.89-4.68t5.32-15.32V87.45l-20.16,3q-10.32,1.76-10.32,10.48a9.49,9.49,0,0,0,3,7.07C734.71,110,737.47,110.94,741,110.94Z"/><path class="cls-2" d="M674.6,42.14a11.46,11.46,0,0,1-3.49-8.41,11.74,11.74,0,0,1,3.49-8.5A11.34,11.34,0,0,1,683,21.66a11.92,11.92,0,0,1,12.07,12.07,11.49,11.49,0,0,1-3.49,8.41A11.66,11.66,0,0,1,683,45.63,11.46,11.46,0,0,1,674.6,42.14Z"/><path class="cls-1" d="M91.13,78.34,75.19,50.73a10,10,0,0,0-8.66-5H34.65a10,10,0,0,0-8.66,5L10.05,78.34a10,10,0,0,0,0,10L26,116a10,10,0,0,0,8.66,5H66.53a10,10,0,0,0,8.66-5L91.13,88.34A10,10,0,0,0,91.13,78.34Z"/><path class="cls-2" d="M105.74,69.84a10,10,0,0,0,8.66,5h31.88a10,10,0,0,0,8.66-5l15.94-27.61a10,10,0,0,0,0-10L154.94,4.62a10,10,0,0,0-8.66-5H114.4a10,10,0,0,0-8.66,5L89.8,32.23a10,10,0,0,0,0,10Z"/><path class="cls-2" d="M154.94,96.8a10,10,0,0,0-8.66-5H114.4a10,10,0,0,0-8.66,5L89.8,124.41a10,10,0,0,0,0,10L105.74,162a10,10,0,0,0,8.66,5h31.88a10,10,0,0,0,8.66-5l15.94-27.61a10,10,0,0,0,0-10Z"/></svg>