<svg id="Camada_1" data-name="Camada 1" xmlns="http://www.w3.org/2000/svg" viewBox="0 0 217.42 217.42"><defs><style>.cls-1{fill:#11286b;}.cls-2{fill:#ffbd00;}</style></defs><title>symbol</title><path class="cls-1" d="M109.38,103.73,93.43,76.12a10,10,0,0,0-8.66-5H52.89a10,10,0,0,0-8.66,5L28.29,103.73a10,10,0,0,0,0,10l15.94,27.61a10,10,0,0,0,8.66,5H84.77a10,10,0,0,0,8.66-5l15.95-27.61A10,10,0,0,0,109.38,103.73Z"/><path class="cls-2" d="M124,95.23a10,10,0,0,0,8.66,5h31.88a10,10,0,0,0,8.66-5l15.94-27.61a10,10,0,0,0,0-10L173.19,30a10,10,0,0,0-8.66-5H132.65A10,10,0,0,0,124,30L108,57.62a10,10,0,0,0,0,10Z"/><path class="cls-2" d="M173.19,122.19a10,10,0,0,0-8.66-5H132.65a10,10,0,0,0-8.66,5L108,149.8a10,10,0,0,0,0,10L124,187.41a10,10,0,0,0,8.66,5h31.88a10,10,0,0,0,8.66-5l15.94-27.61a10,10,0,0,0,0-10Z"/></svg>